# xmcd
#
# Track frame offsets:
#	150
#	15476
#	36551
#	49936
#	65638
#	78479
#	95731
#	110044
#	127814
#	163056
#	192389
#
# Disc length: 3661 seconds
#
# Revision: 1
# Processed by: cddbd v1.5.2PL0 Copyright (c) Steve Scherf et al.
# Submitted via: audiograbber 1.83.01
#
DISCID=9b0e4b0b
DTITLE=Hooker, John Lee - That´s Where It´s At
DYEAR=1900
DGENRE=Blues
TTITLE0=Teachin´ The Blues
TTITLE1=Goin´ To Louisiana
TTITLE2=I Need You
TTITLE3=My Love Comes Down For You
TTITLE4=Please Don´t Go
TTITLE5=I Just Don´t Know
TTITLE6=Slow And Easy
TTITLE7=Two White Horses
TTITLE8=Feel So Bad
TTITLE9=Grinder Man
TTITLE10=Daten-CD
EXTD=
EXTT0=
EXTT1=
EXTT2=
EXTT3=
EXTT4=
EXTT5=
EXTT6=
EXTT7=
EXTT8=
EXTT9=
EXTT10=
PLAYORDER=
